# AST/ASF file generated using VICON BodyLanguage
# -----------------------------------------------
:version 1.10
:name VICON
:units
  mass 1.0
  length 0.45
  angle deg
:documentation
   .ast/.asf automatically generated from VICON data using
   VICON BodyBuilder and BodyLanguage model FoxedUp or BRILLIANT.MOD
:root
   order TX TY TZ RX RY RZ
   axis XYZ
   position 0 0 0  
   orientation 0 -0 0 
:bonedata
  begin
     id 1 
     name lhipjoint
     direction 0.515797 -0.759363 0.396637 
     length 2.47888 
     axis 0 -0 0  XYZ
  end
  begin
     id 2 
     name lfemur
     direction 0.34202 -0.939693 0  
     length 6.81885  
     axis 0 -0 20  XYZ
    dof rx ry rz
    limits (-160.0 20.0)
           (-70.0 70.0)
           (-60.0 70.0)
  end
  begin
     id 3 
     name ltibia
     direction 0.342037 -0.939687 0   
     length 7.89258   
     axis 0 -0 20   XYZ
    dof rx
    limits (-10.0 170.0)
  end
  begin
     id 4 
     name lfoot
     direction 0.173497 -0.476678 0.861787   
     length 2.51543   
     axis -90 -1.13533e-015 20   XYZ
    dof rx rz
    limits (-45.0 90.0)
           (-70.0 20.0)
  end
  begin
     id 5 
     name ltoes
     direction 1.53564e-011 -4.21897e-011 1   
     length 1.21388   
     axis -90 -1.13533e-015 20   XYZ
    dof rx
    limits (-90.0 20.0)
  end
  begin
     id 6 
     name rhipjoint
     direction -0.489454 -0.772941 0.403729   
     length 2.43534  
     axis 0 -0 0  XYZ 
  end
  begin
     id 7 
     name rfemur
     direction -0.34202 -0.939693 0   
     length 7.10357   
     axis 0 -0 -20   XYZ
    dof rx ry rz
    limits (-160.0 20.0)
           (-70.0 70.0)
           (-70.0 60.0)
  end
  begin
     id 8 
     name rtibia
     direction -0.34202 -0.939693 0   
     length 9.16127   
     axis 0 -0 -20   XYZ
    dof rx
    limits (-10.0 170.0)
 end
 begin
     id 9 
     name rfoot
     direction -0.270974 -0.748671 0.605033   
     length 1.74894  
     axis -90 1.13533e-015 -20   XYZ
    dof rx rz
    limits (-45.0 90.0)
           (-20.0 70.0)
  end
  begin
     id 10 
     name rtoes
     direction -1.53557e-011 -4.21759e-011 1   
     length 0.787585   
     axis -90 1.13533e-015 -20   XYZ
    dof rx
    limits (-90.0 20.0)
  end
  begin
     id 11 
     name lowerback
     direction -0.0140249 0.999561 0.0260968   
     length 2.16963   
     axis 0 -0 0   XYZ
    dof rx ry rz
    limits (-20.0 45.0)
           (-30.0 30.0)
           (-30.0 30.0)
  end
  begin
     id 12 
     name upperback
     direction 0.00860018 0.999959 -0.002711   
     length 2.1726   
     axis 0 -0 0   XYZ
    dof rx ry rz
    limits (-20.0 45.0)
           (-30.0 30.0)
           (-30.0 30.0)
  end
  begin
     id 13 
     name thorax
     direction 0.015211 0.999782 -0.0143191   
     length 2.17061   
     axis 0 -0 0   XYZ
    dof rx ry rz
    limits (-20.0 45.0)
           (-30.0 30.0)
           (-30.0 30.0)
  end
  begin
     id 14 
     name lowerneck
     direction -0.0140143 0.999447 0.030145   
     length 2.26749   
     axis 0 -0 0   XYZ
    dof rx ry rz
    limits (-20.0 45.0)
           (-30.0 30.0)
           (-30.0 30.0)
  end
  begin
     id 15 
     name upperneck
     direction 0.118062 0.961438 -0.248392   
     length 2.22728   
     axis 0 -0 0   XYZ
    dof rx ry rz
    limits (-20.0 45.0)
           (-30.0 30.0)
           (-30.0 30.0)
  end
  begin
     id 16
     name head
     direction 0.0431885 0.9954 -0.085514  
     length 2.28786  
     axis 0 -0 0   XYZ
    dof rx ry rz
    limits (-20.0 45.0)
           (-30.0 30.0)
           (-30.0 30.0)
  end
  begin
     id 17 
     name lclavicle
     direction 0.912126 0.409548 0.0172323  
     length 4.31571  
     axis 0 -0 0   XYZ
    dof ry rz
    limits (-20.0 10.0)
           (0.0 20.0)
  end
  begin
     id 18 
     name lhumerus
     direction 1 -4.48977e-011 1.93091e-027   
     length 5.13658   
     axis 180 -30 -90   XYZ
    dof rx ry rz
    limits (-60.0 90.0)
           (-90.0 90.0)
           (-90.0 90.0)
  end
  begin
     id 19
     name lradius
     direction 1 -4.48916e-011 6.84018e-027   
     length 3.22473   
     axis 180 -30 -90   XYZ
    dof rx
    limits (-10.0 170.0)
  end
  begin
     id 20
     name lwrist
     direction 1 -4.48987e-011 7.01981e-027   
     length 1.61236   
     axis -4.37994e-015 90 90   XYZ
    dof ry
    limits (-180.0 0.0)
 end
  begin
     id 21 
     name lhand
     direction 1 -4.49037e-011 1.40335e-026   
     length 0.936406   
     axis -8.96029e-015 90 90   XYZ
    dof rx rz
    limits (-90.0 90.0)
           (-45.0 45.0)
  end
  begin
     id 22 
     name lfingers
     direction 1 -4.48886e-011 2.8104e-026   
     length 0.754955   
     axis -1.79203e-014 90 90   XYZ
    dof rx
    limits (0.0 90.0)
  end
  begin
     id 23
     name lthumb
     direction 0.707107 -6.34937e-011 0.707107   
     length 1.08397   
     axis -90 45 -4.48555e-014   XYZ
    dof rx rz
    limits (-45.0 45.0)
           (-45.0 45.0)
  end
  begin
     id 24 
     name rclavicle
     direction -0.947962 0.317997 0.0156638   
     length 4.86918  
     axis 0 -0 0   XYZ 
    dof ry rz
    limits (-10.0 20.0)
           (-20.0 0.0)
  end
  begin
     id 25 
     name rhumerus
     direction -1 -4.48951e-011 2.80534e-018  
     length 5.60911   
     axis 180 30 90   XYZ
    dof rx ry rz
    limits (-90.0 60.0)
           (-90.0 90.0)
           (-90.0 90.0)
  end
  begin
     id 26 
     name rradius
     direction -1 -4.4898e-011 2.11315e-027   
     length 3.38704   
     axis 180 30 90   XYZ
    dof rx
    limits (-10.0 170.0)
  end
  begin
     id 27 
     name rwrist
     direction -1 -4.48933e-011 7.02314e-027   
     length 1.69352   
     axis -4.37994e-015 -90 -90   XYZ
    dof ry
    limits (-180.0 0.0)
  end
  begin
     id 28
     name rhand
     direction -1 -4.48937e-011 1.40458e-026   
     length 0.755878   
     axis -8.96029e-015 -90 -90   XYZ
    dof rx rz
    limits (-90.0 90.0)
           (-45.0 45.0)
  end
  begin
     id 29
     name rfingers
     direction -1 -4.4901e-011 2.80737e-026   
     length 0.609409   
     axis -1.79203e-014 -90 -90   XYZ
    dof rx
    limits (0.0 90.0)
  end
  begin
     id 30
     name rthumb
     direction -0.707107 -6.34968e-011 0.707107   
     length 0.874992   
     axis -90 -45 4.48555e-014   XYZ
    dof rx rz
    limits (-45.0 45.0)
           (-45.0 45.0)
  end
:hierarchy
  begin
    root lhipjoint rhipjoint lowerback
    lhipjoint lfemur
    lfemur ltibia
    ltibia lfoot
    lfoot ltoes
    rhipjoint rfemur
    rfemur rtibia
    rtibia rfoot
    rfoot rtoes
    lowerback upperback
    upperback thorax
    thorax lowerneck lclavicle rclavicle
    lowerneck upperneck
    upperneck head
    lclavicle lhumerus
    lhumerus lradius
    lradius lwrist
    lwrist lhand lthumb
    lhand lfingers
    rclavicle rhumerus
    rhumerus rradius
    rradius rwrist
    rwrist rhand rthumb
    rhand rfingers
  end

#!OML:ASF C:\ViconDB\ViconDB\414\Spring2016\041811\Spring2016.ASF
:FULLY-SPECIFIED
:DEGREES
16
root 8.01025 18.2618 2.06276 -178.189 -4.81888 179.132
lowerback -5.17537 0.0889444 -4.35726
upperback 0.0214887 0.363952 -0.15194
thorax 2.89983 0.110457 2.31607
lowerneck -16.1914 2.02128 -4.38218
upperneck 24.8269 0.416415 9.71863
head 10.5809 0.546748 4.23711
rclavicle -2.76435e-015 -3.18055e-015
rhumerus -41.4265 -14.8477 -90.8487
rradius 35.725
rwrist 37.1962
rhand -35.0391 -13.9742
rfingers 7.12502
rthumb -8.1825 -43.7958
lclavicle -2.76435e-015 -3.18055e-015
lhumerus -37.7389 -3.52583 91.5417
lradius 24.9914
lwrist -30.424
lhand -26.8736 15.7397
lfingers 7.12502
lthumb -0.298032 45.7192
rfemur 6.4133 -13.1509 17.1307
rtibia 8.8941
rfoot -14.9954 -5.23852
rtoes -12.9037
lfemur -3.59877 -14.0021 -16.2465
ltibia 20.3315
lfoot -21.7443 7.91305
ltoes -9.58216
17
root 8.00802 18.26 2.06428 -178.226 -4.76303 179.129
lowerback -5.1243 0.116107 -4.43761
upperback 0.0451175 0.402632 -0.0855157
thorax 2.89193 0.12861 2.43252
lowerneck -16.1498 2.05077 -4.3966
upperneck 24.7939 0.494809 9.63599
head 10.5538 0.573741 4.21763
rclavicle 6.21202e-016 5.56597e-015
rhumerus -41.4907 -15.0286 -90.601
rradius 35.7875
rwrist 37.2029
rhand -35.0704 -13.9979
rfingers 7.12502
rthumb -8.21275 -43.8183
lclavicle 6.21202e-016 5.56597e-015
lhumerus -37.5779 -2.86717 91.2427
lradius 24.9523
lwrist -30.5304
lhand -26.6553 15.5386
lfingers 7.12502
lthumb -0.0871876 45.5183
rfemur 6.36922 -13.0925 17.1052
rtibia 9.01329
rfoot -14.97 -5.28748
rtoes -12.8993
lfemur -3.55678 -13.9232 -16.263
ltibia 20.3294
lfoot -21.7319 7.88381
ltoes -9.56182
18
root 8.00545 18.2576 2.06712 -178.264 -4.67091 179.062
lowerback -4.95246 0.19154 -4.43548
upperback -0.0754381 0.489922 -0.185344
thorax 2.66493 0.178098 2.33263
lowerneck -15.8042 2.10795 -4.17811
upperneck 24.7607 0.492383 9.60413
head 10.4766 0.573053 4.1569
rclavicle -1.49461e-014 1.66979e-014
rhumerus -41.8147 -15.4936 -90.4342
rradius 35.8762
rwrist 37.3038
rhand -35.0765 -14.0229
rfingers 7.12502
rthumb -8.21864 -43.8431
lclavicle -1.49461e-014 1.66979e-014
lhumerus -37.7993 -2.75794 90.9103
lradius 25.0805
lwrist -30.3095
lhand -26.6498 15.5765
lfingers 7.12502
lthumb -0.0818584 45.5562
rfemur 6.32755 -12.9985 17.0019
rtibia 9.11054
rfoot -14.9608 -5.29502
rtoes -12.8749
lfemur -3.51083 -13.8723 -16.3639
ltibia 20.336
lfoot -21.7483 7.91803
ltoes -9.50759
19
root 8.00233 18.2582 2.07026 -178.278 -4.59073 179.108
lowerback -4.87956 0.230609 -4.315
upperback -0.0821112 0.532153 -0.224898
thorax 2.61538 0.202028 2.22649
lowerneck -15.708 2.18649 -4.02353
upperneck 24.7344 0.580448 9.52406
head 10.4429 0.616063 4.10877
rclavicle -1.1191e-014 9.74045e-015
rhumerus -41.8476 -15.6725 -90.3836
rradius 35.9523
rwrist 37.1294
rhand -35.0412 -14.0481
rfingers 7.12502
rthumb -8.18458 -43.8696
lclavicle -1.1191e-014 9.74045e-015
lhumerus -37.7921 -2.65773 90.6872
lradius 25.2191
lwrist -30.1031
lhand -26.687 15.9667
lfingers 7.12502
lthumb -0.117737 45.9464
rfemur 6.2576 -12.9166 17.0421
rtibia 9.20877
rfoot -14.9364 -5.28146
rtoes -12.9037
lfemur -3.49942 -13.8097 -16.3239
ltibia 20.3441
lfoot -21.7755 7.91539
ltoes -9.46597
20
root 7.99947 18.257 2.07414 -178.308 -4.49313 179.118
lowerback -4.88279 0.22419 -4.3726
upperback 0.0660993 0.532818 -0.116092
thorax 2.769 0.197371 2.37204
lowerneck -15.9663 2.20468 -4.20163
upperneck 24.7214 0.694904 9.51092
head 10.477 0.666263 4.15667
rclavicle -1.56388e-015 9.93923e-015
rhumerus -41.59 -15.768 -90.1394
rradius 35.9892
rwrist 37.2201
rhand -35.0156 -14.2062
rfingers 7.12502
rthumb -8.15984 -44.0286
lclavicle -1.56388e-015 9.93923e-015
lhumerus -37.5265 -2.36593 90.6238
lradius 25.3957
lwrist -29.6737
lhand -26.7887 15.9393
lfingers 7.12502
lthumb -0.215972 45.9189
rfemur 6.2243 -12.8171 17.0394
rtibia 9.27094
rfoot -14.9093 -5.2877
rtoes -12.9174
lfemur -3.44953 -13.7967 -16.3351
ltibia 20.3601
lfoot -21.8408 7.94753
ltoes -9.39433
21
root 7.99613 18.2562 2.0785 -178.321 -4.3953 179.082
lowerback -4.81971 0.242745 -4.41624
upperback 0.100194 0.558206 -0.102949
thorax 2.7665 0.209223 2.41152
lowerneck -15.9547 2.22539 -4.20445
upperneck 24.6891 0.740434 9.48085
head 10.4592 0.685116 4.15073
rclavicle 1.44406e-014 -9.54166e-015
rhumerus -41.531 -15.8898 -89.9825
rradius 36.0849
rwrist 37.0767
rhand -34.9262 -14.3278
rfingers 7.12502
rthumb -8.07353 -44.1535
lclavicle 1.44406e-014 -9.54166e-015
lhumerus -37.4995 -2.3658 90.5546
lradius 25.6481
lwrist -29.1049
lhand -26.7448 16.007
lfingers 7.12502
lthumb -0.173605 45.9867
rfemur 6.18309 -12.7191 16.9885
rtibia 9.32091
rfoot -14.9151 -5.28969
rtoes -12.9211
lfemur -3.44952 -13.6639 -16.398
ltibia 20.3739
lfoot -21.8053 7.96887
ltoes -9.50078
22
root 7.99428 18.2559 2.08337 -178.327 -4.28623 179.09
lowerback -4.7645 0.283533 -4.41456
upperback 0.129538 0.610956 -0.0887245
thorax 2.76179 0.235476 2.42858
lowerneck -15.8778 2.24301 -4.18339
upperneck 24.6168 0.771933 9.46089
head 10.4155 0.699196 4.13933
rclavicle -1.80444e-014 -2.08724e-014
rhumerus -41.4794 -16.0431 -89.8279
rradius 36.1714
rwrist 37.0307
rhand -34.8295 -14.3404
rfingers 7.12502
rthumb -7.98021 -44.1698
lclavicle -1.80444e-014 -2.08724e-014
lhumerus -37.3873 -2.27562 90.4446
lradius 25.7437
lwrist -28.9033
lhand -26.8969 16.1143
lfingers 7.12502
lthumb -0.320559 46.0938
rfemur 6.15606 -12.6098 16.9942
rtibia 9.32184
rfoot -14.917 -5.30586
rtoes -12.8964
lfemur -3.47077 -13.5471 -16.3867
ltibia 20.4107
lfoot -21.8168 7.93203
ltoes -9.46033
23
root 7.99314 18.2564 2.09004 -178.342 -4.18742 179.111
lowerback -4.6363 0.287231 -4.46965
upperback 0.125189 0.611265 0.0207572
thorax 2.68362 0.236908 2.57138
lowerneck -15.7926 2.258 -4.39818
upperneck 24.6286 0.840163 9.4957
head 10.3938 0.712028 4.19595
rclavicle 7.95527e-016 -4.17448e-015
rhumerus -41.4594 -15.9434 -89.6204
rradius 36.2727
rwrist 36.6942
rhand -34.6985 -14.1537
rfingers 7.12502
rthumb -7.85381 -43.9879
lclavicle 7.95527e-016 -4.17448e-015
lhumerus -37.4042 -2.22959 90.5331
lradius 25.9552
lwrist -28.4581
lhand -27.0791 16.165
lfingers 7.12502
lthumb -0.49648 46.1442
rfemur 6.16706 -12.5112 17.0268
rtibia 9.26231
rfoot -14.9606 -5.26349
rtoes -12.9333
lfemur -3.51018 -13.3461 -16.3576
ltibia 20.4785
lfoot -21.8038 7.84731
ltoes -9.45945
24
root 7.99123 18.2566 2.09715 -178.347 -4.09631 179.155
lowerback -4.56003 0.319357 -4.3994
upperback 0.155001 0.64801 0.0292777
thorax 2.66936 0.256443 2.54258
lowerneck -15.7538 2.26617 -4.47136
upperneck 24.6296 0.838615 9.59467
head 10.3848 0.71318 4.24316
rclavicle -2.15085e-014 1.33186e-014
rhumerus -41.3788 -16.0129 -89.5281
rradius 36.3161
rwrist 36.5908
rhand -34.7381 -14.1332
rfingers 7.12502
rthumb -7.89204 -43.9659
lclavicle -2.15085e-014 1.33186e-014
lhumerus -37.3243 -2.31594 90.472
lradius 26.1078
lwrist -28.0868
lhand -27.1814 16.1249
lfingers 7.12502
lthumb -0.5953 46.1038
rfemur 6.17514 -12.4189 17.0687
rtibia 9.18039
rfoot -15.0007 -5.24032
rtoes -12.955
lfemur -3.56905 -13.158 -16.2906
ltibia 20.5644
lfoot -21.8282 7.699
ltoes -9.37462
25
root 7.98978 18.2549 2.10675 -178.35 -4.02299 179.194
lowerback -4.46398 0.374533 -4.30298
upperback 0.216134 0.715104 -0.016141
thorax 2.67507 0.29073 2.44526
lowerneck -15.7635 2.30058 -4.30994
upperneck 24.6 0.861398 9.54133
head 10.3767 0.734147 4.19801
rclavicle -2.27127e-016 9.93923e-016
rhumerus -41.2273 -16.247 -89.4484
rradius 36.3931
rwrist 36.4957
rhand -34.7005 -14.1685
rfingers 7.12502
rthumb -7.85566 -44.0026
lclavicle -2.27127e-016 9.93923e-016
lhumerus -37.1538 -2.50605 90.354
lradius 26.2319
lwrist -28.075
lhand -27.2183 16.3681
lfingers 7.12502
lthumb -0.63094 46.3469
rfemur 6.15505 -12.3447 17.1069
rtibia 9.13429
rfoot -15.0182 -5.2451
rtoes -12.8767
lfemur -3.64693 -12.9426 -16.2296
ltibia 20.6414
lfoot -21.7866 7.57564
ltoes -9.35722
26
root 7.98922 18.2533 2.11626 -178.367 -3.94097 179.211
lowerback -4.33895 0.43399 -4.22533
upperback 0.277001 0.787578 -0.0741429
thorax 2.66407 0.327787 2.34537
lowerneck -15.8012 2.25327 -4.27511
upperneck 24.5628 0.744479 9.6838
head 10.3804 0.699774 4.22837
rclavicle 2.57954e-015 1.09332e-014
rhumerus -41.0605 -16.3789 -89.3863
rradius 36.4427
rwrist 36.5489
rhand -34.6005 -14.3424
rfingers 7.12502
rthumb -7.75919 -44.18
lclavicle 2.57954e-015 1.09332e-014
lhumerus -36.9874 -2.79422 90.3043
lradius 26.3563
lwrist -27.7961
lhand -27.4373 16.3395
lfingers 7.12502
lthumb -0.842459 46.3176
rfemur 6.16818 -12.2626 17.1319
rtibia 9.06145
rfoot -15.0474 -5.2161
rtoes -12.8548
lfemur -3.72103 -12.6666 -16.1873
ltibia 20.7168
lfoot -21.7274 7.4225
ltoes -9.39516
27
root 7.98708 18.2538 2.12719 -178.374 -3.87288 179.16
lowerback -4.15427 0.452497 -4.27568
upperback 0.284988 0.8058 -0.0297571
thorax 2.56599 0.33838 2.4183
lowerneck -15.6969 2.23205 -4.50489
upperneck 24.5418 0.747066 9.78462
head 10.348 0.687686 4.30145
rclavicle -1.84373e-014 1.39149e-014
rhumerus -41.0082 -16.4007 -89.1443
rradius 36.4642
rwrist 36.78
rhand -34.5171 -14.2486
rfingers 7.12502
rthumb -7.6787 -44.0892
lclavicle -1.84373e-014 1.39149e-014
lhumerus -36.9274 -2.85262 90.3644
lradius 26.4256
lwrist -27.7798
lhand -27.6371 16.2529
lfingers 7.12502
lthumb -1.03538 46.2301
rfemur 6.18093 -12.1949 17.0709
rtibia 8.98008
rfoot -15.0237 -5.20157
rtoes -13.0687
lfemur -3.77773 -12.515 -16.2312
ltibia 20.7851
lfoot -21.7268 7.31929
ltoes -9.32668
